<svg xmlns="http://www.w3.org/2000/svg" viewBox="0 0 88 72" width="88" height="72">
  <path d="M12 1C9.878 1 8.144 2.029 7 3.693c-1.144 1.663-1.486 3.801-.831 6.015.006.02.01.04.017.06.088.286.188.568.303.847.234.548.472 1.087.68 1.605.208-.518.446-1.057.68-1.605.115-.279.215-.561.303-.847.007-.021.011-.041.017-.06 1.574-4.501 6.759-5.323 8.158-2.49.415.753.623 1.574.623 2.414 0 1.104-.294 2.143-.814 3.098l.228 1.119 2.142.793-1.035 2.806 1.657.656-1.033 2.804-1.646.579 1.104 3.006-2.146.772-.231 1.102c-.517.625-.854 1.357-1.001 2.128 1.878.528 3.307 2.27 3.307 4.425 0 2.481-2.019 4.5-4.5 4.5s-4.5-2.019-4.5-4.5c0-1.072.378-2.054 1.002-2.817l-.249-1.22-2.112-.784 1.05-2.857-1.643-.65 1.048-2.855 1.624-.571-1.055-2.873-1.096.394c-.645-2.214-.302-4.352.841-6.015C15.857 2.029 14.122 1 12 1zm0 2c1.185 0 2.277.456 3.108 1.291.831.835 1.292 1.956 1.292 3.139 0 .783-.265 1.512-.733 2.131-.224.325-.482.641-.76.946l-1.354-4.44c-.043-.14-.09-.277-.14-.41-.014-.034-.025-.07-.04-.103-.087-.197-.186-.39-.297-.574-.198-.327-.421-.63-.634-.898C12.319 4.021 12.167 4 12 4c-1.104 0-2 .896-2 2 0 .167.019.329.048.488-.213.268-.436.571-.634.898-.111.184-.21.377-.297.574-.014.033-.026.069-.04.103-.05.133-.097.27-.14.41l-1.354 4.44c-.278-.305-.536-.621-.76-.946-.468-.619-.733-1.348-.733-2.131 0-1.183.461-2.304 1.292-3.139C9.723 3.456 10.815 3 12 3zm0 18c1.378 0 2.5-1.122 2.5-2.5s-1.122-2.5-2.5-2.5-2.5 1.122-2.5 2.5 1.122 2.5 2.5 2.5zm0-6a.75.75 0 1 1 0-1.5.75.75 0 0 1 0 1.5z"/>
</svg>
